<svg id="Layer_1" data-name="Layer 1" xmlns="http://www.w3.org/2000/svg" xmlns:xlink="http://www.w3.org/1999/xlink" viewBox="0 0 365 365"><defs><style>.cls-1,.cls-39{fill:none;}.cls-2{isolation:isolate;}.cls-3{fill:#fff;}.cls-4{clip-path:url(#clip-path);}.cls-5{fill:#fefefe;}.cls-6{fill:#fdfdfd;}.cls-7{fill:#fcfcfc;}.cls-8{fill:#fbfbfb;}.cls-9{fill:#fafafa;}.cls-10{fill:#f9f9f9;}.cls-11{fill:#f8f8f8;}.cls-12{fill:#f7f7f7;}.cls-13{fill:#f6f6f6;}.cls-14{fill:#f5f5f5;}.cls-15{fill:#f4f4f4;}.cls-16{fill:#f3f3f3;}.cls-17{fill:#f2f2f2;}.cls-18{fill:#f1f1f1;}.cls-19{fill:#f0f0f0;}.cls-20{fill:#efefef;}.cls-21{fill:#eee;}.cls-22{fill:#ededed;}.cls-23{fill:#ececec;}.cls-24{fill:#ebebeb;}.cls-25{fill:#eaeaea;}.cls-26{fill:#e9e9e9;}.cls-27{fill:#e8e8e8;}.cls-28{fill:#e7e7e7;}.cls-29{fill:#e6e6e6;}.cls-30{fill:#e5e5e5;}.cls-31{fill:#e4e4e4;}.cls-32{fill:#e3e3e3;}.cls-33{fill:#e2e2e2;}.cls-34{fill:#e1e1e1;}.cls-35{fill:#e0e0e0;}.cls-36{fill:#dfdfdf;}.cls-37{fill:#dedede;}.cls-38{fill:#ddd;}.cls-39{stroke-miterlimit:10;stroke-width:12.62px;stroke:url(#linear-gradient);}.cls-40{fill:url(#linear-gradient-2);}.cls-41{fill:url(#linear-gradient-3);}.cls-42{fill:url(#linear-gradient-4);}</style><clipPath id="clip-path" transform="translate(-26 -38)"><path class="cls-1" d="M208,143V38A182,182,0,1,1,26,220C26,120,107,38,208,38V143c-42,0-77,35-77,77a77,77,0,0,0,77,77c42,0,77-35,77-77S250,143,208,143Z"/></clipPath><linearGradient id="linear-gradient" x1="208" y1="49.61" x2="208" y2="393.39" gradientTransform="matrix(1, 0, 0, -1, -25.59, 403.91)" gradientUnits="userSpaceOnUse"><stop offset="0" stop-color="#53346d"/><stop offset="1"/></linearGradient><linearGradient id="linear-gradient-2" x1="162.45" y1="113.61" x2="162.45" y2="305.71" xlink:href="#linear-gradient"/><linearGradient id="linear-gradient-3" x1="257.92" y1="113.13" x2="257.92" y2="305.79" xlink:href="#linear-gradient"/><linearGradient id="linear-gradient-4" x1="210.63" y1="114.41" x2="210.63" y2="305.17" gradientTransform="matrix(1, 0, 0, -1, 0, 442)" xlink:href="#linear-gradient"/></defs><title>HTSmileCircular</title><g id="HT_Smile_in_a_Circle" data-name="HT Smile in a Circle"><g class="cls-2"><path class="cls-3" d="M208,143c42,0,77,35,77,77s-35,77-77,77-77-35-77-77A77,77,0,0,1,208,143Z" transform="translate(-26 -38)"/><g class="cls-2"><g class="cls-4"><g class="cls-2"><path class="cls-3" d="M208,143V38A182,182,0,1,1,26,220C26,120,107,38,208,38V143c-42,0-77,35-77,77a77,77,0,0,0,77,77c42,0,77-35,77-77s-35-77-77-77" transform="translate(-26 -38)"/><path class="cls-3" d="M208,128c-3,1-3,1-14,9l14,2v4c-42,0-77,35-77,77a77,77,0,0,0,77,77c42,0,77-35,77-77s-35-77-77-77v-4h0c36-3,59,24,75,43,0-34-39-54-75-54V38A182,182,0,0,1,390,221c0,101-82,182-182,182A182,182,0,0,1,26,220C26,120,107,38,208,38v90" transform="translate(-26 -38)"/><path class="cls-3" d="M208,124c-92,22-97,125-43,161,69,47,144-35,131-95-5-20-22-67-87-66V38A182,182,0,1,1,26,220C26,120,107,38,208,38v86" transform="translate(-26 -38)"/><path class="cls-3" d="M208,121c-91,14-108,124-45,166s150-19,135-97c-5-26-29-70-91-69V38A182,182,0,1,1,26,220C26,120,107,38,208,38v83" transform="translate(-26 -38)"/><path class="cls-3" d="M208,118h0c-101,17-106,130-46,170s152-22,141-95c-4-26-29-76-95-75V38A182,182,0,1,1,26,220C26,120,107,38,208,38v80" transform="translate(-26 -38)"/><path class="cls-3" d="M208,116C103,135,99,249,161,291s161-21,143-102c-8-34-37-73-96-72V38A182,182,0,0,1,390,221c0,101-82,182-182,182A182,182,0,0,1,26,220C26,120,107,38,208,38v78" transform="translate(-26 -38)"/><path class="cls-3" d="M208,114c-95,13-117,123-54,173s164-4,154-90c-5-40-38-84-99-83V38A182,182,0,0,1,390,221c0,101-82,182-182,182A182,182,0,0,1,26,220C26,120,107,38,208,38v76" transform="translate(-26 -38)"/><path class="cls-3" d="M208,113c-99,14-120,124-56,176s167-3,157-91c-4-34-34-85-101-84V38A182,182,0,1,1,26,220C26,120,107,38,208,38v75" transform="translate(-26 -38)"/><path class="cls-3" d="M208,111C101,127,91,242,151,290s167-3,160-91c-3-34-34-88-103-88V38A182,182,0,1,1,26,220C26,120,107,38,208,38v73" transform="translate(-26 -38)"/><path class="cls-3" d="M208,110C99,126,89,243,150,291s172-5,162-95c-3-24-27-87-104-86V38A182,182,0,1,1,26,220C26,120,107,38,208,38v72" transform="translate(-26 -38)"/><path class="cls-3" d="M208,109h0c-95,9-132,125-59,184s175-3,164-96c-4-35-36-88-105-88V38A182,182,0,1,1,26,220C26,120,107,38,208,38v70" transform="translate(-26 -38)"/><path class="cls-3" d="M208,108C103,120,79,238,149,293s178,4,166-97c-4-36-36-89-107-88V38A182,182,0,0,1,390,221c0,101-82,182-182,182A182,182,0,0,1,26,220C26,120,107,38,208,38v69" transform="translate(-26 -38)"/><path class="cls-3" d="M208,106C101,119,78,239,148,294s180,4,168-99c-4-35-37-89-108-89V38A182,182,0,1,1,26,220C26,120,107,38,208,38v68" transform="translate(-26 -38)"/><path class="cls-3" d="M208,105C93,119,82,244,147,295s181-3,170-98c-4-37-37-92-109-92V38A182,182,0,1,1,26,220C26,120,107,38,208,38v67" transform="translate(-26 -38)"/><path class="cls-3" d="M208,104C91,119,81,245,146,296s185-5,172-101c-5-37-38-91-110-91V38A182,182,0,1,1,26,220C26,120,107,38,208,38v66" transform="translate(-26 -38)"/><path class="cls-3" d="M208,103C91,118,80,245,145,297c76,60,187-5,174-102-5-37-39-92-111-92V38A182,182,0,1,1,26,220C26,120,107,38,208,38v65" transform="translate(-26 -38)"/><path class="cls-3" d="M208,102C97,111,71,240,145,298s189-5,175-103c-6-46-47-93-112-92V38A182,182,0,1,1,26,220C26,120,107,38,208,38v64" transform="translate(-26 -38)"/><path class="cls-3" d="M208,101C97,114,71,241,144,299s191,3,177-104c-5-38-39-93-113-93V38A182,182,0,1,1,26,220C26,120,107,38,208,38v63" transform="translate(-26 -38)"/><path class="cls-3" d="M208,100C96,113,70,241,143,300s193,3,179-105c-5-38-40-94-114-94V38A182,182,0,1,1,26,220C26,120,107,38,208,38v62" transform="translate(-26 -38)"/><path class="cls-3" d="M208,100h0C95,112,68,242,143,300s194-5,180-106c-5-37-41-95-115-94V38A182,182,0,1,1,26,220C26,120,107,38,208,38v62" transform="translate(-26 -38)"/><path class="cls-3" d="M208,99h0C86,112,74,247,142,301c83,66,191-8,183-98-6-61-55-105-117-104V38A182,182,0,1,1,26,220C26,120,107,38,208,38V99" transform="translate(-26 -38)"/><path class="cls-3" d="M208,98h0C93,110,66,240,141,302s194,0,184-99c-6-62-54-106-118-105V38A182,182,0,1,1,26,220C26,120,107,38,208,38V98" transform="translate(-26 -38)"/><path class="cls-3" d="M208,97h0C84,110,72,248,141,303s195,0,186-100c-6-63-55-106-119-106V38A182,182,0,1,1,26,220C26,120,107,38,208,38V97" transform="translate(-26 -38)"/><path class="cls-3" d="M208,96C83,110,70,248,140,303s197,0,187-101c-6-62-55-106-119-106V38A182,182,0,1,1,26,220C26,120,107,38,208,38V96" transform="translate(-26 -38)"/><path class="cls-3" d="M208,96C89,107,61,242,140,304s198,0,188-101c-6-62-56-108-120-107V38A182,182,0,1,1,26,220C26,120,107,38,208,38V96" transform="translate(-26 -38)"/><path class="cls-3" d="M208,95h0C88,106,60,242,139,305s200,0,190-102c-6-63-57-108-121-108V38A182,182,0,1,1,26,220C26,120,107,38,208,38V95" transform="translate(-26 -38)"/><path class="cls-3" d="M208,94h0C87,105,59,242,139,305s201,0,191-103c-6-63-57-109-122-108V38A182,182,0,1,1,26,220C26,120,107,38,208,38V94" transform="translate(-26 -38)"/><path class="cls-3" d="M208,93C86,105,58,242,138,306s206-4,192-111c-7-51-51-102-122-101V38A182,182,0,1,1,26,220C26,120,107,38,208,38V93" transform="translate(-26 -38)"/><path class="cls-3" d="M208,93h0C85,104,56,242,138,307s204,0,194-105c-6-64-58-110-123-109V38A182,182,0,0,1,390,221c0,101-82,182-182,182A182,182,0,0,1,26,220C26,120,107,38,208,38V93" transform="translate(-26 -38)"/><path class="cls-3" d="M208,92C84,103,56,241,137,307s206-2,195-105c-7-64-59-111-124-110V38A182,182,0,1,1,26,220C26,120,107,38,208,38V92" transform="translate(-26 -38)"/><path class="cls-3" d="M208,91C86,102,57,242,137,308s207-2,196-106c-7-65-59-111-125-110V38A182,182,0,0,1,390,221c0,101-82,182-182,182A182,182,0,0,1,26,220C26,120,107,38,208,38V91" transform="translate(-26 -38)"/><path class="cls-3" d="M208,91C85,101,55,242,136,308s208,0,197-107c-7-65-59-112-125-111V38A182,182,0,1,1,26,220C26,120,107,38,208,38V91" transform="translate(-26 -38)"/><path class="cls-3" d="M208,90C88,97,53,236,129,303s211,12,205-99c-3-57-51-115-126-114V38A182,182,0,1,1,26,220C26,120,107,38,208,38V90" transform="translate(-26 -38)"/><path class="cls-3" d="M208,89C82,99,53,242,135,310s211,0,199-108c-7-66-60-113-127-112V38A182,182,0,1,1,26,220C26,120,107,38,208,38V89" transform="translate(-26 -38)"/><path class="cls-3" d="M208,89C82,99,52,243,135,310s212,0,201-109c-7-66-60-113-127-113V38A182,182,0,0,1,390,221c0,101-82,182-182,182A182,182,0,0,1,26,220C26,120,107,38,208,38V89" transform="translate(-26 -38)"/><path class="cls-3" d="M208,88C86,98,51,237,127,305s215,12,209-101c-3-57-52-116-128-115V38A182,182,0,1,1,26,220C26,120,107,38,208,38V88" transform="translate(-26 -38)"/><path class="cls-3" d="M208,88C77,98,57,243,127,305c85,76,216,12,210-102-3-58-52-117-129-116V38A182,182,0,1,1,26,220C26,120,107,38,208,38V88" transform="translate(-26 -38)"/><path class="cls-3" d="M208,87C79,97,49,243,133,312s216,0,204-111c-7-67-61-115-129-114V38A182,182,0,0,1,390,221c0,101-82,182-182,182A182,182,0,0,1,26,220C26,120,107,38,208,38V87" transform="translate(-26 -38)"/><path class="cls-3" d="M208,86C79,97,48,243,133,312s217-3,205-111c-7-67-62-115-130-115V38A182,182,0,1,1,26,220C26,120,107,38,208,38V86" transform="translate(-26 -38)"/><path class="cls-3" d="M208,86C78,96,47,243,132,313s218-3,206-112c-7-67-62-116-130-115V38A182,182,0,1,1,26,220C26,120,107,38,208,38V86" transform="translate(-26 -38)"/><path class="cls-3" d="M208,85C77,96,46,244,132,313s220,0,207-113c-8-68-63-116-131-116V38A182,182,0,1,1,26,220C26,120,107,38,208,38V85" transform="translate(-26 -38)"/><path class="cls-3" d="M208,85C77,95,46,244,132,314s221,0,208-113c-8-68-63-117-131-116V38A182,182,0,1,1,26,220C26,120,107,38,208,38V85" transform="translate(-26 -38)"/><path class="cls-3" d="M208,84C83,93,46,238,124,308s224,13,216-105c-4-59-54-120-132-119V38A182,182,0,1,1,26,220C26,120,107,38,208,38V84" transform="translate(-26 -38)"/><path class="cls-3" d="M208,84h0C80,93,44,238,124,309s225,13,217-106c-4-59-54-120-133-119V38A182,182,0,1,1,26,220C26,120,107,38,208,38V84" transform="translate(-26 -38)"/><path class="cls-3" d="M208,83C80,93,43,238,123,309s226,13,218-106c-4-60-55-121-133-120V38A182,182,0,1,1,26,220C26,120,107,38,208,38V83" transform="translate(-26 -38)"/><path class="cls-3" d="M208,83C79,92,42,238,123,310s227,13,219-107c-4-60-55-121-134-120V38A182,182,0,1,1,26,220C26,120,107,38,208,38V83" transform="translate(-26 -38)"/><path class="cls-3" d="M208,82C70,92,49,244,122,310c90,80,228,13,220-108-4-60-55-121-135-121V38A182,182,0,1,1,26,220C26,120,107,38,208,38V82" transform="translate(-26 -38)"/><path class="cls-3" d="M208,82C69,92,48,244,122,311c88,79,227,15,222-102-3-72-63-127-135-127V38A182,182,0,1,1,26,220C26,120,107,38,208,38V82" transform="translate(-26 -38)"/><path class="cls-3" d="M208,81h0C77,91,40,238,121,311s230,14,222-109c-4-60-56-122-136-122V38A182,182,0,1,1,26,220C26,120,107,38,208,38V81" transform="translate(-26 -38)"/><path class="cls-3" d="M208,81C77,90,39,238,121,312s231,14,223-109c-4-60-56-123-136-122V38A182,182,0,0,1,390,221c0,101-82,182-182,182A182,182,0,0,1,26,220C26,120,107,38,208,38V81" transform="translate(-26 -38)"/><path class="cls-3" d="M208,80C76,90,38,238,121,312s232,14,224-110c-4-61-56-123-137-122V38A182,182,0,0,1,390,221c0,101-82,182-182,182A182,182,0,0,1,26,220C26,120,107,38,208,38V80" transform="translate(-26 -38)"/><path class="cls-3" d="M208,80C75,89,37,238,120,313s233,14,225-110c-4-61-57-124-137-123V38A182,182,0,1,1,26,220C26,120,107,38,208,38V80" transform="translate(-26 -38)"/><path class="cls-3" d="M208,79h0C75,89,37,239,120,313s234,14,226-111c-4-61-57-124-138-123V38A182,182,0,1,1,26,220C26,120,107,38,208,38V79" transform="translate(-26 -38)"/><path class="cls-3" d="M208,79h0C74,88,36,238,119,313s236,14,227-111c-4-61-57-124-138-124V38A182,182,0,0,1,390,221c0,101-82,182-182,182A182,182,0,0,1,26,220C26,120,107,38,208,38V79" transform="translate(-26 -38)"/><path class="cls-3" d="M208,78h0C73,87,35,239,119,314s237,14,228-112c-4-61-57-125-139-124V38A182,182,0,1,1,26,220C26,120,107,38,208,38V78" transform="translate(-26 -38)"/><path class="cls-3" d="M208,78C73,87,34,239,118,314s238,14,229-112c-4-62-58-125-139-125V38A182,182,0,1,1,26,220C26,120,107,38,208,38V78" transform="translate(-26 -38)"/><path class="cls-3" d="M208,77h0C63,87,41,245,118,315c95,85,238,14,230-113-4-62-58-125-140-125V38A182,182,0,1,1,26,220C26,120,107,38,208,38V77" transform="translate(-26 -38)"/><path class="cls-3" d="M208,77C63,87,40,246,118,315c95,86,240,15,231-113-4-62-58-126-140-125V38A182,182,0,1,1,26,220C26,120,107,38,208,38V77" transform="translate(-26 -38)"/><path class="cls-3" d="M208,76C71,86,32,239,117,316c96,87,235,7,232-102-2-79-63-138-141-137V38A182,182,0,1,1,26,220C26,120,107,38,208,38V76" transform="translate(-26 -38)"/><path class="cls-3" d="M208,76C71,85,31,239,117,316s242,12,232-114c-5-62-59-127-141-126V38A182,182,0,1,1,26,220C26,120,107,38,208,38V76" transform="translate(-26 -38)"/><path class="cls-3" d="M208,75C70,85,31,239,116,316s242,12,233-115c-5-62-59-127-142-126V38A182,182,0,1,1,26,220C26,120,107,38,208,38V75" transform="translate(-26 -38)"/><path class="cls-3" d="M208,75C70,84,30,239,116,317s243,12,234-115c-5-63-59-127-142-127V38A182,182,0,1,1,26,220C26,120,107,38,208,38V75" transform="translate(-26 -38)"/><path class="cls-3" d="M208,74C69,84,29,239,116,317s244,12,235-115c-5-63-59-128-143-127V38A182,182,0,0,1,390,221c0,101-82,182-182,182A182,182,0,0,1,26,220C26,120,107,38,208,38V74" transform="translate(-26 -38)"/><path class="cls-3" d="M208,74h0C69,83,29,240,115,318s245,12,236-116c-4-50-45-125-143-128V38A182,182,0,1,1,26,220C26,120,107,38,208,38V74" transform="translate(-26 -38)"/><path class="cls-3" d="M208,74C71,82,29,241,115,318s246,13,236-116c-5-63-60-128-143-128V38A182,182,0,1,1,26,220C26,120,107,38,208,38V74" transform="translate(-26 -38)"/><path class="cls-3" d="M208,73C68,82,27,240,115,318s247,13,237-117c-5-63-60-129-144-128V38A182,182,0,1,1,26,220C26,120,107,38,208,38V73" transform="translate(-26 -38)"/><path class="cls-3" d="M208,73h0C67,82,27,240,114,319c100,90,242,8,239-106-2-80-64-141-145-141V38A182,182,0,1,1,26,220C26,120,107,38,208,38V73" transform="translate(-26 -38)"/><path class="cls-3" d="M208,72C67,81,26,240,114,319c100,90,243,8,240-106-2-81-65-141-145-141V38A182,182,0,1,1,26,220C26,120,107,38,208,38V72" transform="translate(-26 -38)"/><path class="cls-3" d="M208,72C66,81,25,240,114,319c100,91,244,8,240-106-2-81-65-142-146-141V38A182,182,0,1,1,26,220C26,120,107,38,208,38V72" transform="translate(-26 -38)"/><path class="cls-3" d="M208,71C66,81,25,240,113,320c105,94,248,8,241-112-4-78-67-137-146-137V38A182,182,0,1,1,26,220C26,120,107,38,208,38V71" transform="translate(-26 -38)"/><path class="cls-3" d="M208,71C65,80,24,240,113,320c103,93,244,10,242-107-2-80-66-142-147-142V38A182,182,0,1,1,26,220C26,120,107,38,208,38V71" transform="translate(-26 -38)"/><path class="cls-3" d="M208,71C65,80,23,240,112,321c102,92,246,8,243-107-2-82-66-143-147-143V38A182,182,0,0,1,390,221c0,101-82,182-182,182A182,182,0,0,1,26,220C26,120,107,38,208,38V71" transform="translate(-26 -38)"/><path class="cls-3" d="M208,70C64,79,23,240,112,321c102,92,247,8,244-108-3-82-66-143-148-143V38A182,182,0,0,1,390,221c0,101-82,182-182,182A182,182,0,0,1,26,220C26,120,107,38,208,38V70" transform="translate(-26 -38)"/><path class="cls-3" d="M208,70h0C63,79,22,240,112,321c102,92,248,8,244-108-3-82-66-144-148-143V38A182,182,0,1,1,26,220C26,120,107,38,208,38V70" transform="translate(-26 -38)"/><path class="cls-3" d="M208,69C63,78,21,240,111,322c103,93,249,8,245-109-3-82-66-144-148-144V38A182,182,0,1,1,26,220C26,120,107,38,208,38V69" transform="translate(-26 -38)"/><path class="cls-3" d="M208,69C63,78,21,240,111,322c103,93,250,8,246-109-3-82-65-143-149-144V38A182,182,0,1,1,26,220C26,120,107,38,208,38V69" transform="translate(-26 -38)"/><path class="cls-3" d="M208,69C65,77,22,242,111,322c104,94,250,8,247-109-3-83-67-145-149-144V38A182,182,0,1,1,26,220C26,120,107,38,208,38V69" transform="translate(-26 -38)"/><path class="cls-3" d="M208,68C63,77,20,240,110,323c104,95,251,9,247-110-3-83-67-145-150-145V38A182,182,0,0,1,390,221c0,101-82,182-182,182A182,182,0,0,1,26,220C26,120,107,38,208,38V68" transform="translate(-26 -38)"/><path class="cls-3" d="M208,68C64,76,21,243,110,323c104,94,252,9,248-110-3-83-67-145-150-145V38A182,182,0,1,1,26,220C26,120,107,38,208,38V68" transform="translate(-26 -38)"/><path class="cls-3" d="M208,67C64,76,20,243,110,323c105,95,253,9,249-110-3-83-68-146-151-146V38A182,182,0,1,1,26,220C26,120,107,38,208,38V67" transform="translate(-26 -38)"/><path class="cls-3" d="M208,67C64,76,20,243,109,324c105,95,254,9,250-111-3-83-68-146-151-146V38A182,182,0,0,1,390,221c0,101-82,182-182,182A182,182,0,0,1,26,220C26,120,107,38,208,38V67" transform="translate(-26 -38)"/><path class="cls-3" d="M208,67C63,75,19,243,109,324c106,95,254,9,250-111-3-84-68-147-151-146V38A182,182,0,1,1,26,220C26,120,107,38,208,38V67" transform="translate(-26 -38)"/><path class="cls-3" d="M208,66C63,75,18,243,109,325s254,20,251-112c-1-82-68-147-152-147V38A182,182,0,0,1,390,221c0,101-82,182-182,182A182,182,0,0,1,26,220C26,120,107,38,208,38V66" transform="translate(-26 -38)"/><path class="cls-3" d="M208,66C62,74,18,243,108,325c106,96,256,9,252-112-3-84-68-147-152-147V38A182,182,0,1,1,26,220C26,120,107,38,208,38V66" transform="translate(-26 -38)"/><path class="cls-3" d="M208,66h0C62,74,17,243,108,325c107,96,257,9,253-112-3-84-69-148-153-147V38A182,182,0,1,1,26,220C26,120,107,38,208,38V66" transform="translate(-26 -38)"/><path class="cls-3" d="M208,65C61,74,17,243,108,326c107,97,258,9,253-113-3-85-69-148-153-148V38A182,182,0,1,1,26,220C26,120,107,38,208,38V65" transform="translate(-26 -38)"/><path class="cls-3" d="M208,65h0C61,73,16,243,107,326c107,97,258,9,254-113-3-85-69-148-153-148V38A182,182,0,1,1,26,220C26,120,107,38,208,38V65" transform="translate(-26 -38)"/><path class="cls-3" d="M208,64C60,73,15,243,107,326c108,98,259,9,255-113-3-70-52-146-154-148V38A182,182,0,1,1,26,220C26,120,107,38,208,38V64" transform="translate(-26 -38)"/><path class="cls-3" d="M208,64C60,72,15,243,107,327c108,98,260,9,255-114-3-85-69-149-154-149V38A182,182,0,1,1,26,220C26,120,107,38,208,38V64" transform="translate(-26 -38)"/><path class="cls-3" d="M208,64C59,72,14,243,106,327c108,98,261,9,256-114-3-85-70-149-155-149V38A182,182,0,1,1,26,220C26,120,107,38,208,38V64" transform="translate(-26 -38)"/><path class="cls-3" d="M208,63h0C59,72,14,243,106,327c109,99,261,9,257-114-3-86-70-150-155-149V38A182,182,0,1,1,26,220C26,120,107,38,208,38V63" transform="translate(-26 -38)"/><path class="cls-3" d="M208,63C59,71,13,244,106,328c109,99,262,9,258-115-3-86-70-150-155-150V38A182,182,0,1,1,26,220C26,120,107,38,208,38V63" transform="translate(-26 -38)"/><path class="cls-3" d="M208,63C58,71,13,244,105,328c109,99,263,9,258-115-3-86-70-150-156-150V38A182,182,0,0,1,390,221c0,101-82,182-182,182A182,182,0,0,1,26,220C26,120,107,38,208,38V63" transform="translate(-26 -38)"/><path class="cls-3" d="M208,62h0C58,70,12,244,105,328c110,100,264,9,259-116-3-86-70-151-156-150V38A182,182,0,1,1,26,220C26,120,107,38,208,38V62" transform="translate(-26 -38)"/><path class="cls-3" d="M208,62C57,70,11,244,105,329c110,100,264,10,260-116-3-86-71-151-157-151V38A182,182,0,0,1,390,221c0,101-82,182-182,182A182,182,0,0,1,26,220C26,120,107,38,208,38V62" transform="translate(-26 -38)"/><path class="cls-3" d="M208,62C57,70,11,244,105,329c110,100,265,10,260-116-3-86-71-151-157-151V38A182,182,0,1,1,26,220C26,120,107,38,208,38V62" transform="translate(-26 -38)"/><path class="cls-3" d="M208,61h0C57,69,10,244,104,329c111,101,266,10,261-117-3-87-71-152-157-151V38A182,182,0,1,1,26,220C26,120,107,38,208,38V61" transform="translate(-26 -38)"/><path class="cls-3" d="M208,61C56,69,10,244,104,330c111,101,267,10,262-117-3-87-71-152-158-152V38A182,182,0,0,1,390,221c0,101-82,182-182,182A182,182,0,0,1,26,220C26,120,107,38,208,38V61" transform="translate(-26 -38)"/><path class="cls-3" d="M208,60C56,69,9,244,104,330c111,101,267,10,262-117-3-87-71-152-158-152V38A182,182,0,1,1,26,220C26,120,107,38,208,38V60" transform="translate(-26 -38)"/><path class="cls-3" d="M208,60C53,68,8,242,103,330s269,19,263-118c-3-88-72-153-158-152V38A182,182,0,1,1,26,220C26,120,107,38,208,38V60" transform="translate(-26 -38)"/><path class="cls-3" d="M208,60h0C55,68,8,244,103,331c112,102,269,10,264-118-4-87-72-153-159-153V38A182,182,0,1,1,26,220C26,120,107,38,208,38V60" transform="translate(-26 -38)"/><path class="cls-3" d="M208,60C55,68,8,244,103,331c112,102,270,10,264-118-4-88-72-153-159-153V38A182,182,0,0,1,390,221c0,101-82,182-182,182A182,182,0,0,1,26,220C26,120,107,38,208,38V60" transform="translate(-26 -38)"/><path class="cls-5" d="M208,59h0C54,67,7,244,102,331c113,103,270,10,265-119-4-88-72-154-159-153V38A182,182,0,1,1,26,220C26,120,107,38,208,38V59" transform="translate(-26 -38)"/><path class="cls-5" d="M208,59C54,67,7,244,102,331c113,103,271,10,266-119-4-88-72-154-160-154V38A182,182,0,1,1,26,220C26,120,107,38,208,38V59" transform="translate(-26 -38)"/><path class="cls-5" d="M208,58C53,66,6,245,102,332c107,97,276,18,266-125-6-84-75-148-160-148V38A182,182,0,0,1,390,221c0,101-82,182-182,182A182,182,0,0,1,26,220C26,120,107,38,208,38V58" transform="translate(-26 -38)"/><path class="cls-6" d="M208,58C53,66,5,245,102,332s271,20,267-120c-3-87-73-155-161-154V38A182,182,0,0,1,390,221c0,101-82,182-182,182A182,182,0,0,1,26,220C26,120,107,38,208,38V58" transform="translate(-26 -38)"/><path class="cls-6" d="M208,58C53,66,5,245,101,332c114,104,273,10,268-120-4-88-73-155-161-155V38A182,182,0,1,1,26,220C26,120,107,38,208,38V58" transform="translate(-26 -38)"/><path class="cls-6" d="M208,57C52,65,4,245,101,333c114,104,274,10,268-120-4-89-73-155-161-155V38A182,182,0,1,1,26,220C26,120,107,38,208,38V57" transform="translate(-26 -38)"/><path class="cls-7" d="M208,57h0C52,65,4,245,101,333c115,105,275,11,269-121-4-89-73-156-162-155V38A182,182,0,1,1,26,220C26,120,107,38,208,38V57" transform="translate(-26 -38)"/><path class="cls-7" d="M208,57h0C51,65,3,245,100,333c115,105,275,11,270-121-4-89-74-156-162-156V38A182,182,0,1,1,26,220C26,120,107,38,208,38V57" transform="translate(-26 -38)"/><path class="cls-7" d="M208,56C51,64,3,245,100,334c115,105,276,11,270-121-4-89-74-156-162-156V38A182,182,0,1,1,26,220C26,120,107,38,208,38V56" transform="translate(-26 -38)"/><path class="cls-8" d="M208,56C51,64,2,245,100,334c116,106,277,11,271-122-4-90-72-155-163-156V38A182,182,0,0,1,390,221c0,101-82,182-182,182A182,182,0,0,1,26,220C26,120,107,38,208,38V56" transform="translate(-26 -38)"/><path class="cls-8" d="M208,56C50,64,2,245,99,334c116,106,278,11,272-122-4-89-74-157-163-157V38A182,182,0,0,1,390,221c0,101-82,182-182,182A182,182,0,0,1,26,220C26,120,107,38,208,38V56" transform="translate(-26 -38)"/><path class="cls-8" d="M208,55C50,63,1,245,99,335c116,106,278,11,272-122-4-90-74-157-163-157V38A182,182,0,1,1,26,220C26,120,107,38,208,38V55" transform="translate(-26 -38)"/><path class="cls-9" d="M208,55h0C49,63,1,245,99,335c117,106,279,11,273-123-4-90-74-157-164-157V38A182,182,0,1,1,26,220C26,120,107,38,208,38V55" transform="translate(-26 -38)"/><path class="cls-9" d="M208,55h0C49,63,0,245,99,335c117,106,279,11,273-123-4-90-74-158-164-157V38A182,182,0,1,1,26,220C26,120,107,38,208,38V55" transform="translate(-26 -38)"/><path class="cls-9" d="M208,54C49,62,0,245,98,335c117,106,280,10,274-123-4-90-74-158-164-158V38A182,182,0,1,1,26,220C26,120,107,38,208,38V54" transform="translate(-26 -38)"/><path class="cls-10" d="M208,54h0C48,62-1,246,98,336c115,105,281,8,275-124-4-90-75-158-165-158V38A182,182,0,1,1,26,220C26,120,107,38,208,38V54" transform="translate(-26 -38)"/><path class="cls-10" d="M208,54C48,62-1,246,98,336c115,105,281,8,275-124-4-90-75-158-165-158V38A182,182,0,1,1,26,220C26,120,107,38,208,38V54" transform="translate(-26 -38)"/><path class="cls-10" d="M208,54h0C48,61-2,246,97,336c115,105,282,8,276-124-4-90-75-159-165-159V38A182,182,0,1,1,26,220C26,120,107,38,208,38V54" transform="translate(-26 -38)"/><path class="cls-11" d="M208,53C45,61-4,243,97,337s283,20,277-124c-4-91-76-159-166-159V38A182,182,0,1,1,26,220C26,120,107,38,208,38V53" transform="translate(-26 -38)"/><path class="cls-11" d="M208,53C47,61-3,246,97,337c116,106,283,8,277-125-4-91-76-159-166-159V38A182,182,0,1,1,26,220C26,120,107,38,208,38V53" transform="translate(-26 -38)"/><path class="cls-11" d="M208,53C47,60-3,246,97,337c116,106,284,8,278-125-4-91-76-160-166-160V38A182,182,0,1,1,26,220C26,120,107,38,208,38V53" transform="translate(-26 -38)"/><path class="cls-12" d="M208,52h0C46,60-4,246,96,337c117,107,285,8,278-125-4-91-76-160-167-160V38A182,182,0,1,1,26,220C26,120,107,38,208,38V52" transform="translate(-26 -38)"/><path class="cls-12" d="M208,52C46,60-4,246,96,338c117,107,285,8,279-126-4-91-76-160-167-160V38A182,182,0,1,1,26,220C26,120,107,38,208,38V52" transform="translate(-26 -38)"/><path class="cls-12" d="M208,52C45,60-5,246,96,338c117,107,286,8,280-126-4-92-76-160-167-161V38A182,182,0,1,1,26,220C26,120,107,38,208,38V52" transform="translate(-26 -38)"/><path class="cls-13" d="M208,51h0C45,59-5,246,96,338c120,110,286,11,280-126-4-92-76-161-168-161V38A182,182,0,1,1,26,220C26,120,107,38,208,38V51" transform="translate(-26 -38)"/><path class="cls-13" d="M208,51C45,59-6,246,95,339s287,22,281-127A167,167,0,0,0,208,51V38A182,182,0,0,1,390,221c0,101-82,182-182,182A182,182,0,0,1,26,220C26,120,107,38,208,38V51" transform="translate(-26 -38)"/><path class="cls-14" d="M208,51C45,59-6,246,95,339c118,108,288,8,281-127-5-92-77-161-168-161V38A182,182,0,0,1,390,221c0,101-82,182-182,182A182,182,0,0,1,26,220C26,120,107,38,208,38V51" transform="translate(-26 -38)"/><path class="cls-14" d="M208,51C44,58-7,246,95,339c118,108,289,8,282-127-5-92-77-161-169-162V38A182,182,0,1,1,26,220C26,120,107,38,208,38V51" transform="translate(-26 -38)"/><path class="cls-14" d="M208,50C41,58-9,244,94,339c119,110,289,9,282-127-5-92-77-162-169-162V38A182,182,0,1,1,26,220C26,120,107,38,208,38V50" transform="translate(-26 -38)"/><path class="cls-15" d="M208,50C43,58-8,247,94,340c119,109,290,8,283-128-5-92-77-162-169-162V38A182,182,0,1,1,26,220C26,120,107,38,208,38V50" transform="translate(-26 -38)"/><path class="cls-15" d="M208,50C43,57-8,247,94,340c119,109,291,8,284-128-5-92-78-162-170-162V38A182,182,0,0,1,390,221c0,101-82,182-182,182A182,182,0,0,1,26,220C26,120,107,38,208,38V50" transform="translate(-26 -38)"/><path class="cls-15" d="M208,49C43,57-8,247,94,340c120,110,291,9,284-128C372,106,286,49,208,49V38A182,182,0,1,1,26,220C26,120,107,38,208,38V49" transform="translate(-26 -38)"/><path class="cls-16" d="M208,49C43,57-9,247,93,341c120,110,292,9,285-129-5-93-78-163-170-163V38A182,182,0,1,1,26,220C26,120,107,38,208,38V49" transform="translate(-26 -38)"/><path class="cls-16" d="M208,49C42,57-9,247,93,341c120,110,292,9,285-129-5-93-78-163-170-163V38A182,182,0,0,1,390,221c0,101-82,182-182,182A182,182,0,0,1,26,220C26,120,107,38,208,38V49" transform="translate(-26 -38)"/><path class="cls-16" d="M208,49C42,56-10,247,93,341c120,110,293,9,286-129-5-93-78-163-171-163V38A182,182,0,1,1,26,220C26,120,107,38,208,38V49" transform="translate(-26 -38)"/><path class="cls-17" d="M208,48C42,56-10,247,93,341c114,104,293,23,286-129-4-93-78-163-171-164V38A182,182,0,1,1,26,220C26,120,107,38,208,38V48" transform="translate(-26 -38)"/><path class="cls-17" d="M208,48C41,56-10,247,92,342s292,22,287-130c-3-92-79-164-171-164V38A182,182,0,0,1,390,221c0,101-82,182-182,182A182,182,0,0,1,26,220C26,120,107,38,208,38V48" transform="translate(-26 -38)"/><path class="cls-17" d="M208,48C41,56-11,248,92,342c121,111,295,9,287-130-5-93-79-164-172-164V38A182,182,0,1,1,26,220C26,120,107,38,208,38V48" transform="translate(-26 -38)"/><path class="cls-18" d="M208,47C41,56-11,248,92,342c122,112,295,9,288-130-5-93-79-164-172-165V38A182,182,0,0,1,390,221c0,101-82,182-182,182A182,182,0,0,1,26,220C26,120,107,38,208,38v9" transform="translate(-26 -38)"/><path class="cls-18" d="M208,47C41,55-12,248,92,342c122,112,296,9,288-131-5-93-79-164-172-165V38A182,182,0,1,1,26,220C26,120,107,38,208,38v9" transform="translate(-26 -38)"/><path class="cls-18" d="M208,47h0C40,55-12,248,91,343c122,112,296,9,289-131-5-94-79-165-172-165V38A182,182,0,0,1,390,221c0,101-82,182-182,182A182,182,0,0,1,26,220C26,120,107,38,208,38v9" transform="translate(-26 -38)"/><path class="cls-19" d="M208,47h0C40,55-12,248,91,343c122,112,297,9,289-131-5-94-79-165-173-165V38A182,182,0,1,1,26,220C26,120,107,38,208,38v9" transform="translate(-26 -38)"/><path class="cls-19" d="M208,46C40,55-13,248,91,343c123,113,297,9,290-131C375,104,287,46,208,46V38A182,182,0,1,1,26,220C26,120,107,38,208,38v8" transform="translate(-26 -38)"/><path class="cls-19" d="M208,46h0C39,54-13,248,91,343c123,113,298,9,290-131-5-94-80-165-173-166V38A182,182,0,0,1,390,221c0,101-82,182-182,182A182,182,0,0,1,26,220C26,120,107,38,208,38v8" transform="translate(-26 -38)"/><path class="cls-20" d="M208,46h0C39,54-14,248,90,344c123,113,299,9,291-132-5-94-80-165-173-166V38A182,182,0,0,1,390,221c0,101-82,182-182,182A182,182,0,0,1,26,220C26,120,107,38,208,38v8" transform="translate(-26 -38)"/><path class="cls-20" d="M208,46C39,54-14,248,90,344c123,113,299,9,291-132-5-94-80-166-174-166V38A182,182,0,1,1,26,220C26,120,107,38,208,38v8" transform="translate(-26 -38)"/><path class="cls-20" d="M208,45C38,53-15,248,90,344c124,114,300,9,292-132-5-94-80-166-174-166V38A182,182,0,1,1,26,220C26,120,107,38,208,38v7" transform="translate(-26 -38)"/><path class="cls-21" d="M208,45C38,53-15,248,90,344c116,107,299,24,292-133-4-94-79-166-174-167V38A182,182,0,1,1,26,220C26,120,107,38,208,38v7" transform="translate(-26 -38)"/><path class="cls-21" d="M208,45C38,53-15,248,90,345c124,114,300,9,293-133-5-95-80-166-174-167V38A182,182,0,1,1,26,220C26,120,107,38,208,38v7" transform="translate(-26 -38)"/><path class="cls-21" d="M208,45h0C37,53-16,248,89,345c124,114,301,9,293-133-5-95-80-167-175-167V38A182,182,0,1,1,26,220C26,120,107,38,208,38v7" transform="translate(-26 -38)"/><path class="cls-22" d="M208,45h0C37,52-16,248,89,345c124,114,301,9,294-133-5-95-80-167-175-167V38A182,182,0,1,1,26,220C26,120,107,38,208,38v7" transform="translate(-26 -38)"/><path class="cls-22" d="M208,44C37,52-17,248,89,345c125,115,302,9,294-133-5-95-81-167-175-167V38A182,182,0,1,1,26,220C26,120,107,38,208,38v6" transform="translate(-26 -38)"/><path class="cls-22" d="M208,44h0C37,52-17,248,89,345c125,115,302,9,294-134-5-95-81-167-175-168V38A182,182,0,1,1,26,220C26,120,107,38,208,38v6" transform="translate(-26 -38)"/><path class="cls-23" d="M208,44C36,51-17,248,89,346c125,115,303,10,295-134-5-95-81-167-175-168V38A182,182,0,1,1,26,220C26,120,107,38,208,38v6" transform="translate(-26 -38)"/><path class="cls-23" d="M208,44C36,51-18,248,88,346c125,115,303,10,295-134-5-95-81-167-176-168V38A182,182,0,1,1,26,220C26,120,107,38,208,38v6" transform="translate(-26 -38)"/><path class="cls-23" d="M208,44C36,51-18,248,88,346c125,116,304,10,296-134-5-96-81-168-176-168V38A182,182,0,0,1,390,221c0,101-82,182-182,182A182,182,0,0,1,26,220C26,120,107,38,208,38v6" transform="translate(-26 -38)"/><path class="cls-24" d="M208,43h0C36,51-18,248,88,346c126,116,304,10,296-135-5-96-81-168-176-168V38A182,182,0,0,1,390,221c0,101-82,182-182,182A182,182,0,0,1,26,220C26,120,107,38,208,38v5" transform="translate(-26 -38)"/><path class="cls-24" d="M208,43h0C35,51-19,248,88,346c125,115,304,9,297-135-5-96-81-168-176-168V38A182,182,0,0,1,390,221c0,101-82,182-182,182A182,182,0,0,1,26,220C26,120,107,38,208,38v5" transform="translate(-26 -38)"/><path class="cls-24" d="M208,43C35,51-19,248,88,347c126,116,305,10,297-135-5-96-81-168-177-169V38A182,182,0,1,1,26,220C26,120,107,38,208,38v5" transform="translate(-26 -38)"/><path class="cls-25" d="M208,43C35,50-19,249,87,347c126,116,306,10,297-135-5-96-82-168-177-169V38A182,182,0,1,1,26,220C26,120,107,38,208,38v5" transform="translate(-26 -38)"/><path class="cls-25" d="M208,43C35,50-19,249,87,347c127,117,306,10,298-135-6-96-82-169-177-169V38A182,182,0,1,1,26,220C26,120,107,38,208,38v5" transform="translate(-26 -38)"/><path class="cls-25" d="M208,42C35,50-20,249,87,347c127,117,307,10,298-135-6-96-82-169-177-169V38A182,182,0,1,1,26,220C26,120,107,38,208,38v4" transform="translate(-26 -38)"/><path class="cls-26" d="M208,42C34,50-20,249,87,347c127,117,307,10,299-136-6-96-82-169-177-169V38A182,182,0,0,1,390,221c0,101-82,182-182,182A182,182,0,0,1,26,220C26,120,107,38,208,38v4" transform="translate(-26 -38)"/><path class="cls-26" d="M208,42h0C34,50-20,249,87,348c127,117,307,10,299-136-6-96-82-169-178-170V38A182,182,0,1,1,26,220C26,120,107,38,208,38v4" transform="translate(-26 -38)"/><path class="cls-26" d="M208,42C34,50-21,249,87,348c127,117,308,10,299-136C379,101,289,42,208,42V38A182,182,0,1,1,26,220C26,120,107,38,208,38v4" transform="translate(-26 -38)"/><path class="cls-27" d="M208,42C34,49-21,249,86,348c128,118,308,10,300-136-6-96-82-169-178-170V38A182,182,0,0,1,390,221c0,101-82,182-182,182A182,182,0,0,1,26,220C26,120,107,38,208,38v4" transform="translate(-26 -38)"/><path class="cls-27" d="M208,42C34,49-21,249,86,348c128,118,309,10,300-137-6-96-82-169-178-170V38A182,182,0,1,1,26,220C26,120,107,38,208,38v3" transform="translate(-26 -38)"/><path class="cls-27" d="M208,41h0C33,49-22,249,86,348c119,110,307,24,300-137-4-95-83-170-178-170V38A182,182,0,0,1,390,221c0,101-82,182-182,182A182,182,0,0,1,26,220C26,120,107,38,208,38v3" transform="translate(-26 -38)"/><path class="cls-28" d="M208,41C33,49-22,249,86,348c128,118,309,10,301-137-6-96-82-170-179-170V38A182,182,0,1,1,26,220C26,120,107,38,208,38v3" transform="translate(-26 -38)"/><path class="cls-28" d="M208,41h0C33,49-22,249,86,349c128,118,310,10,301-137-6-97-83-170-179-170V38A182,182,0,0,1,390,221c0,101-82,182-182,182A182,182,0,0,1,26,220C26,120,107,38,208,38v3" transform="translate(-26 -38)"/><path class="cls-28" d="M208,41C33,49-22,249,86,349c129,118,310,10,301-137-6-97-83-170-179-171V38A182,182,0,1,1,26,220C26,120,107,38,208,38v3" transform="translate(-26 -38)"/><path class="cls-29" d="M208,41h0C32,48-23,249,85,349c129,119,311,10,302-137-6-97-83-170-179-171V38A182,182,0,1,1,26,220C26,120,107,38,208,38v3" transform="translate(-26 -38)"/><path class="cls-29" d="M208,41C32,48-23,249,85,349c129,119,311,10,302-137-6-97-83-170-179-171V38A182,182,0,0,1,390,221c0,101-82,182-182,182A182,182,0,0,1,26,220C26,120,107,38,208,38v3" transform="translate(-26 -38)"/><path class="cls-29" d="M208,41C32,48-23,249,85,349c129,119,311,10,302-138-6-97-83-170-179-171V38A182,182,0,1,1,26,220C26,120,107,38,208,38v2" transform="translate(-26 -38)"/><path class="cls-30" d="M208,40h0C32,48-23,249,85,349c129,119,311,10,303-138-6-97-83-171-180-171V38A182,182,0,1,1,26,220C26,120,107,38,208,38v2" transform="translate(-26 -38)"/><path class="cls-30" d="M208,40C32,48-24,249,85,350c129,119,312,10,303-138-6-97-81-169-180-171V38A182,182,0,1,1,26,220C26,120,107,38,208,38v2" transform="translate(-26 -38)"/><path class="cls-31" d="M208,40C31,47-24,249,85,350c129,120,312,10,303-138-6-97-83-171-180-171V38A182,182,0,0,1,390,221c0,101-82,182-182,182A182,182,0,0,1,26,220C26,120,107,38,208,38v2" transform="translate(-26 -38)"/><path class="cls-31" d="M208,40C31,47-24,249,85,350c130,120,312,11,303-138-6-97-83-171-180-171V38A182,182,0,1,1,26,220C26,120,107,38,208,38v2" transform="translate(-26 -38)"/><path class="cls-31" d="M208,40C31,47-24,249,84,350c120,111,310,25,304-137-4-96-83-172-180-173,101-2,182,80,182,181a182,182,0,0,1-365,0C26,120,107,38,208,38v2" transform="translate(-26 -38)"/><path class="cls-32" d="M208,40C31,47-25,249,84,350c130,120,313,11,304-139-6-97-83-171-180-172,101-2,182,80,182,181S309,403,208,403A182,182,0,0,1,26,220C26,120,107,38,208,38v2" transform="translate(-26 -38)"/><path class="cls-32" d="M208,40C31,47-25,249,84,350c130,120,313,11,304-139-6-97-84-171-180-172,101-2,182,80,182,181S309,403,208,403A182,182,0,0,1,26,220C26,120,107,38,208,38v2" transform="translate(-26 -38)"/><path class="cls-32" d="M208,40C31,47-25,249,84,350c130,120,314,11,304-139-6-98-84-171-181-172,101-1,182,80,182,181S309,403,208,403A182,182,0,0,1,26,220C26,120,107,38,208,38h0" transform="translate(-26 -38)"/><path class="cls-33" d="M208,39C30,47-25,249,84,351c130,120,314,11,305-139-6-98-84-171-181-172,101-1,182,80,182,181S309,403,208,403A182,182,0,0,1,26,220C26,120,107,38,208,38h0" transform="translate(-26 -38)"/><path class="cls-33" d="M208,39C30,46-26,250,84,351c130,121,314,11,305-139-6-98-84-172-181-172,101-1,182,80,182,181S309,403,208,403A182,182,0,0,1,26,220C26,120,107,38,208,38h0" transform="translate(-26 -38)"/><path class="cls-33" d="M208,39h0C30,46-26,250,84,351c131,121,315,11,305-139-6-98-84-172-181-172,101-1,182,81,182,181S309,403,208,403A182,182,0,0,1,26,220C26,120,107,38,208,38h0" transform="translate(-26 -38)"/><path class="cls-34" d="M208,39C30,46-26,250,84,351c131,121,315,11,305-139-5-81-64-169-181-172,101-1,182,81,182,181S309,403,208,403A182,182,0,0,1,26,220C26,120,107,38,208,38h0" transform="translate(-26 -38)"/><path class="cls-34" d="M208,39h0C30,46-26,250,83,351c131,121,315,11,306-140-6-98-84-172-181-172,101-1,182,81,182,181S309,403,208,403A182,182,0,0,1,26,220C26,120,107,38,208,38h0" transform="translate(-26 -38)"/><path class="cls-34" d="M208,39C29,46-27,250,83,351c131,121,315,10,306-140-6-98-84-172-181-173,101-1,182,81,182,182S309,403,208,403A182,182,0,0,1,26,220C26,120,107,38,208,38h0" transform="translate(-26 -38)"/><path class="cls-35" d="M208,39h0C29,46-27,250,83,351c131,121,316,11,306-140-6-98-84-172-181-173,101-1,182,81,182,182S309,403,208,403A182,182,0,0,1,26,220C26,120,107,38,208,38h0" transform="translate(-26 -38)"/><path class="cls-35" d="M208,39C29,46-27,250,83,351c131,121,316,11,306-140-6-98-84-172-182-173,101-1,182,81,182,182S309,403,208,403A182,182,0,0,1,26,220C26,120,107,38,208,38h0" transform="translate(-26 -38)"/><path class="cls-35" d="M208,39h0C29,45-27,250,83,351c131,122,316,11,307-140-6-98-84-172-182-173,101-1,182,81,182,182S309,403,208,403A182,182,0,0,1,26,220C26,120,107,38,208,38h0" transform="translate(-26 -38)"/><path class="cls-36" d="M208,39h0C29,45-27,250,83,352c132,122,316,11,307-140-6-98-84-172-182-173,101,0,182,81,182,182a182,182,0,0,1-365,0C26,120,107,38,208,38h0" transform="translate(-26 -38)"/><path class="cls-36" d="M208,38C29,45-27,250,83,352s309,27,307-137c-1-84-71-176-182-176,101,0,182,81,182,182a182,182,0,0,1-365,0C26,120,107,38,208,38h0" transform="translate(-26 -38)"/><path class="cls-36" d="M208,38C31,43-26,251,83,352c120,111,310,26,307-137-1-85-70-174-182-176,101,0,182,81,182,182S309,403,208,403A182,182,0,0,1,26,220C26,120,107,38,208,38h0" transform="translate(-26 -38)"/><path class="cls-37" d="M208,38C29,45-28,250,82,352s315,22,307-141c-5-97-85-173-182-173,101,0,182,82,182,182S309,403,208,403A182,182,0,0,1,26,220C26,120,107,38,208,38h0" transform="translate(-26 -38)"/><path class="cls-37" d="M208,38C29,45-28,250,82,352s310,27,308-137c-1-84-71-176-182-176,101,0,182,82,182,182a182,182,0,0,1-365,0C26,120,107,38,208,38h0" transform="translate(-26 -38)"/><path class="cls-37" d="M208,38h0C29,45-28,250,82,352s311,27,308-138c-1-84-71-176-182-176A182,182,0,0,1,390,221c0,101-82,182-182,182A182,182,0,0,1,26,220C26,120,107,38,208,38h0" transform="translate(-26 -38)"/><path class="cls-38" d="M208,38h0C29,45-28,250,82,352s311,27,308-138c-1-84-71-175-182-176A182,182,0,1,1,26,220C26,120,107,38,208,38h0" transform="translate(-26 -38)"/></g></g></g></g><circle class="cls-39" cx="182" cy="182" r="166"/><polygon class="cls-40" points="155 213 181 213 181 99 155 99 155 144 118 144 118 99 92 99 92 213 118 213 118 167 155 167 155 213"/><polygon class="cls-41" points="192 99 192 121 219 121 219 213 245 213 245 121 272 121 272 99 192 99"/><path class="cls-42" d="M244,271a33,33,0,0,1-67,0v-7H151v8a60,60,0,0,0,119,0v-8H245Z" transform="translate(-26 -38)"/></g></svg>