<svg id="Smile" xmlns="http://www.w3.org/2000/svg" viewBox="0 0 416.048 441.02"><defs><style>.cls-1{fill:#fff;}</style></defs><title>Logo</title><polygon class="cls-1" points="145.284 264.006 205.445 264.006 205.445 0 145.284 0 145.284 105.282 60.162 105.282 60.162 0 0 0 0 264.006 60.162 264.006 60.162 158.083 145.284 158.083 145.284 264.006"/><polygon class="cls-1" points="230.445 0 230.445 52.801 293.166 52.801 293.166 264.006 353.328 264.006 353.328 52.801 416.048 52.801 416.048 0 230.445 0"/><path class="cls-1" d="M291.359,310.075c-3.463,39.456-37.247,70.362-76.914,70.362s-73.452-30.907-76.915-70.362l-1.366-15.56H75.729l1.245,18.212a137.8,137.8,0,0,0,274.943,0l1.243-18.212H292.724Z"/></svg>