<?xml version="1.0" encoding="utf-8"?>
<!-- Generator: Adobe Illustrator 21.0.0, SVG Export Plug-In . SVG Version: 6.00 Build 0)  -->
<svg version="1.1" id="Layer_1" xmlns="http://www.w3.org/2000/svg" xmlns:xlink="http://www.w3.org/1999/xlink" x="0px" y="0px"
	 viewBox="0 0 24 24" style="enable-background:new 0 0 24 24;" xml:space="preserve">
<style type="text/css">
	.st0{fill:#FFFFFF;}
</style>
<path class="st0" d="M20.1,18H3.9c-1.3,0-2.3,0.9-2.3,2s1,2,2.3,2h16.1c1.3,0,2.3-0.9,2.3-2S21.3,18,20.1,18z"/>
<path class="st0" d="M20.1,10H3.9c-1.3,0-2.3,0.9-2.3,2s1,2,2.3,2h16.1c1.3,0,2.3-0.9,2.3-2S21.3,10,20.1,10z"/>
<path class="st0" d="M20.1,2H3.9C2.7,2,1.6,2.9,1.6,4s1,2,2.3,2h16.1c1.3,0,2.3-0.9,2.3-2S21.3,2,20.1,2z"/>
</svg>
